<svg width="25" height="25" viewBox="0 0 25 25" fill="none" xmlns="http://www.w3.org/2000/svg">
<path d="M13.0208 1.5625C11.1771 1.5625 9.55208 2.78125 9.03125 4.55208C8.47917 4.30208 7.89583 4.16667 7.29167 4.16667C6.1866 4.16667 5.12679 4.60565 4.34539 5.38706C3.56399 6.16846 3.125 7.22827 3.125 8.33333C3.12747 9.25608 3.43541 10.152 4.00075 10.8813C4.56609 11.6106 5.357 12.1322 6.25 12.3646V19.7917H19.7917V12.3646C21.625 11.8854 22.9167 10.2292 22.9167 8.33333C22.9167 7.22827 22.4777 6.16846 21.6963 5.38706C20.9149 4.60565 19.8551 4.16667 18.75 4.16667C18.1458 4.16667 17.5625 4.30208 17.0104 4.55208C16.4896 2.78125 14.8646 1.5625 13.0208 1.5625ZM12.5 10.9375H13.5417V18.2292H12.5V10.9375ZM9.375 13.0208H10.4167V18.2292H9.375V13.0208ZM15.625 13.0208H16.6667V18.2292H15.625V13.0208ZM6.25 20.8333V21.875C6.25 22.1513 6.35975 22.4162 6.5551 22.6116C6.75045 22.8069 7.0154 22.9167 7.29167 22.9167H18.75C19.0263 22.9167 19.2912 22.8069 19.4866 22.6116C19.6819 22.4162 19.7917 22.1513 19.7917 21.875V20.8333H6.25Z" fill="#000000"/>
</svg>
