<svg width="141" height="26" viewBox="0 0 141 26" fill="none" xmlns="http://www.w3.org/2000/svg">
<path d="M13.0208 1.5625C11.1771 1.5625 9.55208 2.78125 9.03125 4.55208C8.47917 4.30208 7.89583 4.16667 7.29167 4.16667C6.1866 4.16667 5.12679 4.60565 4.34539 5.38706C3.56399 6.16846 3.125 7.22827 3.125 8.33333C3.12747 9.25608 3.43541 10.152 4.00075 10.8813C4.56609 11.6106 5.357 12.1322 6.25 12.3646V19.7917H19.7917V12.3646C21.625 11.8854 22.9167 10.2292 22.9167 8.33333C22.9167 7.22827 22.4777 6.16846 21.6963 5.38706C20.9149 4.60565 19.8551 4.16667 18.75 4.16667C18.1458 4.16667 17.5625 4.30208 17.0104 4.55208C16.4896 2.78125 14.8646 1.5625 13.0208 1.5625ZM12.5 10.9375H13.5417V18.2292H12.5V10.9375ZM9.375 13.0208H10.4167V18.2292H9.375V13.0208ZM15.625 13.0208H16.6667V18.2292H15.625V13.0208ZM6.25 20.8333V21.875C6.25 22.1513 6.35975 22.4162 6.5551 22.6116C6.75045 22.8069 7.0154 22.9167 7.29167 22.9167H18.75C19.0263 22.9167 19.2912 22.8069 19.4866 22.6116C19.6819 22.4162 19.7917 22.1513 19.7917 21.875V20.8333H6.25Z" fill="black"/>
<path d="M46.614 7.57C45.7473 6.87667 44.742 6.53 43.598 6.53C42.4713 6.53 40.998 6.75533 39.178 7.206C39.4553 8.15933 39.594 9.13 39.594 10.118C39.594 11.106 39.568 11.9033 39.516 12.51C40.2613 12.3713 41.0067 12.302 41.752 12.302C42.4973 12.302 43.2253 12.4407 43.936 12.718C43.936 13.4807 43.78 14.0787 43.468 14.512C42.688 14.2173 41.7867 14.07 40.764 14.07C40.4693 14.07 39.9927 14.122 39.334 14.226C38.9353 16.9127 38.1467 19.0533 36.968 20.648C35.8067 22.2253 34.4373 23.014 32.86 23.014C31.9067 23.014 31.1353 22.728 30.546 22.156C29.9567 21.584 29.662 20.8213 29.662 19.868C29.662 18.568 30.1993 17.3373 31.274 16.176C32.366 14.9973 33.796 14.0613 35.564 13.368C35.6853 12.848 35.746 12.0853 35.746 11.08C35.746 10.0573 35.6507 9.16467 35.46 8.402C35.0267 8.506 34.5413 8.558 34.004 8.558C32.9813 8.558 32.1667 8.324 31.56 7.856C30.9707 7.388 30.676 6.79 30.676 6.062C30.676 5.31667 31.0227 4.71 31.716 4.242C32.4093 3.774 33.3107 3.54 34.42 3.54C36.1013 3.54 37.4013 4.19 38.32 5.49C39.672 4.762 40.634 4.25933 41.206 3.982C42.61 3.27133 43.754 2.916 44.638 2.916C45.5393 2.916 46.25 3.32333 46.77 4.138C47.29 4.95267 47.55 5.87133 47.55 6.894C47.4807 7.03267 47.1687 7.258 46.614 7.57ZM32.47 20.518C33.094 20.518 33.6573 20.0153 34.16 19.01C34.6627 18.0047 35.0353 16.774 35.278 15.318C34.2207 15.734 33.328 16.3407 32.6 17.138C31.8893 17.9353 31.534 18.6893 31.534 19.4C31.534 19.7467 31.6207 20.024 31.794 20.232C31.9673 20.4227 32.1927 20.518 32.47 20.518ZM32.626 6.27C32.626 6.54733 32.7647 6.764 33.042 6.92C33.3367 7.05867 33.6573 7.128 34.004 7.128C34.3507 7.128 34.6627 7.076 34.94 6.972C34.5067 6.12267 33.9607 5.698 33.302 5.698C32.8513 5.698 32.626 5.88867 32.626 6.27ZM48.918 22.312C47.722 22.312 46.786 21.896 46.11 21.064C45.434 20.2147 45.096 19.036 45.096 17.528C45.096 15.604 45.6074 13.9487 46.63 12.562C47.67 11.1753 49.1 10.482 50.92 10.482L51.856 10.534C52.1507 10.378 52.48 10.3 52.844 10.3C54.2134 10.3 54.898 11.5913 54.898 14.174C55.6087 14.1393 56.328 14.044 57.056 13.888L57.472 13.784L57.628 14.798C57.056 15.0407 56.2847 15.2573 55.314 15.448L54.794 15.552C54.4647 17.372 53.7974 18.958 52.792 20.31C51.7867 21.6447 50.4954 22.312 48.918 22.312ZM50.322 20.076C51.05 20.076 51.7 19.608 52.272 18.672C52.8614 17.736 53.2687 16.748 53.494 15.708C51.6394 15.708 50.712 15.0147 50.712 13.628C50.712 13.0733 50.8247 12.5533 51.05 12.068L51.18 11.808C51.1107 11.7733 51.024 11.756 50.92 11.756C50.816 11.756 50.738 11.7733 50.686 11.808C50.2527 12.0853 49.8454 12.7353 49.464 13.758C49.0827 14.7807 48.892 15.9507 48.892 17.268C48.892 19.14 49.3687 20.076 50.322 20.076ZM59.8106 22.312C58.6146 22.312 57.6786 21.896 57.0026 21.064C56.3266 20.2147 55.9886 19.036 55.9886 17.528C55.9886 15.604 56.5 13.9487 57.5226 12.562C58.5626 11.1753 59.9926 10.482 61.8126 10.482L62.7486 10.534C63.0433 10.378 63.3726 10.3 63.7366 10.3C65.106 10.3 65.7906 11.5913 65.7906 14.174C66.5013 14.1393 67.2206 14.044 67.9486 13.888L68.3646 13.784L68.5206 14.798C67.9486 15.0407 67.1773 15.2573 66.2066 15.448L65.6866 15.552C65.3573 17.372 64.69 18.958 63.6846 20.31C62.6793 21.6447 61.388 22.312 59.8106 22.312ZM61.2146 20.076C61.9426 20.076 62.5926 19.608 63.1646 18.672C63.754 17.736 64.1613 16.748 64.3866 15.708C62.532 15.708 61.6046 15.0147 61.6046 13.628C61.6046 13.0733 61.7173 12.5533 61.9426 12.068L62.0726 11.808C62.0033 11.7733 61.9166 11.756 61.8126 11.756C61.7086 11.756 61.6306 11.7733 61.5786 11.808C61.1453 12.0853 60.738 12.7353 60.3566 13.758C59.9753 14.7807 59.7846 15.9507 59.7846 17.268C59.7846 19.14 60.2613 20.076 61.2146 20.076ZM79.1333 20.414C77.66 21.6793 76.36 22.312 75.2333 22.312C74.124 22.312 73.4826 21.7573 73.3093 20.648C72.7893 21.168 72.2086 21.5753 71.5673 21.87C70.926 22.1647 70.3626 22.312 69.8773 22.312C69.0453 22.312 68.3346 21.948 67.7453 21.22C67.156 20.492 66.8613 19.3653 66.8613 17.84C66.8613 15.552 67.3466 13.758 68.3173 12.458C69.288 11.1407 70.38 10.482 71.5933 10.482C72.824 10.482 73.8553 10.7593 74.6873 11.314C75.2246 8.506 75.4933 6.296 75.4933 4.684L75.3633 3.592C76.6633 3.14133 77.9373 2.916 79.1853 2.916C79.324 3.21067 79.3933 3.54867 79.3933 3.93C79.3933 5.19533 79.012 7.76933 78.2493 11.652C77.4866 15.5173 77.1053 18.1433 77.1053 19.53C77.1053 19.946 77.2006 20.154 77.3913 20.154C77.4953 20.154 77.8246 19.9893 78.3793 19.66L78.6393 19.504L79.1333 20.414ZM72.8673 12.016C72.2606 12.016 71.732 12.614 71.2813 13.81C70.848 15.006 70.6313 16.1933 70.6313 17.372C70.6313 18.5333 70.7093 19.2787 70.8653 19.608C71.0386 19.9373 71.29 20.102 71.6193 20.102C72.1913 20.102 72.7546 19.868 73.3093 19.4C73.3613 18.7067 73.7513 16.4013 74.4793 12.484C73.89 12.172 73.3526 12.016 72.8673 12.016ZM85.2421 12.094C85.2421 12.822 85.0081 14.0787 84.5401 15.864C84.0721 17.632 83.8381 18.7933 83.8381 19.348C83.8381 19.8853 83.9161 20.154 84.0721 20.154C84.1761 20.154 84.5747 19.9893 85.2681 19.66L85.5801 19.504L86.0221 20.414C85.8661 20.5527 85.6581 20.726 85.3981 20.934C85.1381 21.142 84.6527 21.428 83.9421 21.792C83.2314 22.1387 82.5727 22.312 81.9661 22.312C81.3594 22.312 80.8827 22.13 80.5361 21.766C80.1894 21.3847 80.0161 20.882 80.0161 20.258C80.0161 19.6167 80.2327 18.49 80.6661 16.878C81.0994 15.2487 81.3161 14.1913 81.3161 13.706C81.3161 12.978 81.0907 12.2933 80.6401 11.652L80.4061 11.34L80.4321 11.002C81.3507 10.742 82.8414 10.612 84.9041 10.612C85.1294 10.872 85.2421 11.366 85.2421 12.094ZM82.2781 7.778C81.9314 7.43133 81.7581 6.972 81.7581 6.4C81.7581 5.828 81.9921 5.32533 82.4601 4.892C82.9454 4.45867 83.5001 4.242 84.1241 4.242C84.7481 4.242 85.2334 4.41533 85.5801 4.762C85.9267 5.10867 86.1001 5.568 86.1001 6.14C86.1001 6.69467 85.8487 7.18867 85.3461 7.622C84.8607 8.05533 84.3147 8.272 83.7081 8.272C83.1014 8.272 82.6247 8.10733 82.2781 7.778ZM86.8401 17.502C86.8401 15.3353 87.4901 13.628 88.7901 12.38C90.1074 11.1147 91.5981 10.482 93.2621 10.482C94.2847 10.482 95.1254 10.7333 95.7841 11.236C96.4427 11.7387 96.7721 12.4147 96.7721 13.264C96.7721 14.096 96.5554 14.798 96.1221 15.37C95.7061 15.942 95.1947 16.384 94.5881 16.696C93.3574 17.3027 92.2307 17.684 91.2081 17.84L90.5841 17.918C90.7054 19.5473 91.3727 20.362 92.5861 20.362C93.0021 20.362 93.4441 20.258 93.9121 20.05C94.3801 19.842 94.7441 19.634 95.0041 19.426L95.3941 19.114L96.0181 19.946C95.8794 20.1367 95.6021 20.388 95.1861 20.7C94.7701 21.012 94.3801 21.272 94.0161 21.48C93.0107 22.0347 91.9101 22.312 90.7141 22.312C89.5181 22.312 88.5734 21.8873 87.8801 21.038C87.1867 20.1887 86.8401 19.01 86.8401 17.502ZM90.5581 16.644C91.4421 16.488 92.1441 16.1153 92.6641 15.526C93.1841 14.9367 93.4441 14.174 93.4441 13.238C93.4441 12.302 93.1667 11.834 92.6121 11.834C91.9534 11.834 91.4421 12.3973 91.0781 13.524C90.7314 14.6333 90.5581 15.6733 90.5581 16.644ZM116.886 23.456C116.626 24.0107 116.21 24.5133 115.638 24.964C115.083 25.432 114.485 25.666 113.844 25.666C113.203 25.666 112.57 25.484 111.946 25.12C111.339 24.7733 110.845 24.418 110.464 24.054C110.083 23.69 109.537 23.1267 108.826 22.364C108.133 21.6013 107.656 21.09 107.396 20.83C106.477 21.818 105.359 22.312 104.042 22.312C103.175 22.312 102.465 22.0953 101.91 21.662C101.355 21.2287 101.078 20.6567 101.078 19.946C101.078 19.218 101.373 18.6027 101.962 18.1C102.569 17.58 103.375 17.32 104.38 17.32C104.952 17.32 105.524 17.4153 106.096 17.606C106.269 16.7567 106.408 15.552 106.512 13.992C105.455 13.8013 104.588 13.3593 103.912 12.666C103.253 11.9553 102.924 10.976 102.924 9.728C102.924 9.24267 103.002 8.62733 103.158 7.882C103.349 7.84733 103.6 7.83 103.912 7.83C104.224 7.83 104.545 7.95133 104.874 8.194C104.649 8.61 104.536 9.16467 104.536 9.858C104.536 11.262 105.221 12.1287 106.59 12.458C106.659 10.5687 106.763 9.24267 106.902 8.48C107.041 7.7 107.283 6.96333 107.63 6.27C107.977 5.55933 108.549 4.92667 109.346 4.372C110.161 3.81733 111.192 3.54 112.44 3.54C113.688 3.54 114.65 3.91267 115.326 4.658C116.019 5.386 116.366 6.25267 116.366 7.258C116.366 8.662 115.716 10.0833 114.416 11.522C113.133 12.9433 111.539 13.81 109.632 14.122C109.095 16.462 108.705 18.048 108.462 18.88C108.739 19.088 109.242 19.478 109.97 20.05C110.715 20.622 111.279 21.0467 111.66 21.324C112.059 21.584 112.587 21.844 113.246 22.104C113.922 22.3813 114.572 22.52 115.196 22.52L116.288 22.442C116.583 22.858 116.782 23.196 116.886 23.456ZM114.624 7.492C114.624 6.972 114.485 6.54733 114.208 6.218C113.948 5.88867 113.593 5.724 113.142 5.724C111.981 5.724 111.131 6.98933 110.594 9.52C110.299 10.9067 110.091 11.912 109.97 12.536C111.253 12.3107 112.345 11.678 113.246 10.638C114.165 9.58067 114.624 8.532 114.624 7.492ZM103.808 20.362C104.415 20.362 104.952 20.0327 105.42 19.374C104.917 19.062 104.415 18.906 103.912 18.906C103.167 18.906 102.794 19.1487 102.794 19.634C102.794 19.8767 102.898 20.0587 103.106 20.18C103.314 20.3013 103.548 20.362 103.808 20.362ZM121.576 12.094C121.576 12.822 121.342 14.0787 120.874 15.864C120.406 17.632 120.172 18.7933 120.172 19.348C120.172 19.8853 120.25 20.154 120.406 20.154C120.51 20.154 120.909 19.9893 121.602 19.66L121.914 19.504L122.356 20.414C122.2 20.5527 121.992 20.726 121.732 20.934C121.472 21.142 120.987 21.428 120.276 21.792C119.565 22.1387 118.907 22.312 118.3 22.312C117.693 22.312 117.217 22.13 116.87 21.766C116.523 21.3847 116.35 20.882 116.35 20.258C116.35 19.6167 116.567 18.49 117 16.878C117.433 15.2487 117.65 14.1913 117.65 13.706C117.65 12.978 117.425 12.2933 116.974 11.652L116.74 11.34L116.766 11.002C117.685 10.742 119.175 10.612 121.238 10.612C121.463 10.872 121.576 11.366 121.576 12.094ZM118.612 7.778C118.265 7.43133 118.092 6.972 118.092 6.4C118.092 5.828 118.326 5.32533 118.794 4.892C119.279 4.45867 119.834 4.242 120.458 4.242C121.082 4.242 121.567 4.41533 121.914 4.762C122.261 5.10867 122.434 5.568 122.434 6.14C122.434 6.69467 122.183 7.18867 121.68 7.622C121.195 8.05533 120.649 8.272 120.042 8.272C119.435 8.272 118.959 8.10733 118.612 7.778ZM131.312 18.594C131.312 19.686 130.827 20.5787 129.856 21.272C128.903 21.9653 127.811 22.312 126.58 22.312C125.349 22.312 124.37 22.052 123.642 21.532C122.931 21.012 122.576 20.5527 122.576 20.154C122.576 19.9113 122.879 19.5213 123.486 18.984C124.093 18.4293 124.604 18.0913 125.02 17.97C125.887 18.6113 126.597 19.6253 127.152 21.012C127.793 20.96 128.114 20.6567 128.114 20.102C128.114 19.3047 127.412 18.178 126.008 16.722C124.604 15.2487 123.902 14.0787 123.902 13.212C123.902 12.3453 124.292 11.678 125.072 11.21C125.852 10.7247 126.788 10.482 127.88 10.482C128.989 10.482 129.821 10.6813 130.376 11.08C130.931 11.4613 131.208 11.99 131.208 12.666C131.208 13.3247 130.679 14.2433 129.622 15.422C129.743 15.5433 129.899 15.708 130.09 15.916C130.281 16.1067 130.532 16.4793 130.844 17.034C131.156 17.5887 131.312 18.1087 131.312 18.594ZM128.816 14.512C129.544 13.888 129.908 13.2727 129.908 12.666C129.908 12.0593 129.492 11.756 128.66 11.756C128.261 11.756 127.932 11.8427 127.672 12.016C127.412 12.172 127.282 12.354 127.282 12.562C127.282 12.9433 127.663 13.4807 128.426 14.174L128.816 14.512ZM140.658 10.794C140.624 11.2273 140.476 11.73 140.216 12.302C139.558 12.2327 138.934 12.198 138.344 12.198H137.876C137.079 16.0633 136.68 18.4727 136.68 19.426C136.68 19.9287 136.784 20.18 136.992 20.18C137.218 20.18 137.798 19.9633 138.734 19.53L139.202 20.388C137.66 21.6707 136.23 22.312 134.912 22.312C134.306 22.312 133.803 22.1213 133.404 21.74C133.023 21.3587 132.832 20.856 132.832 20.232C132.832 19.5907 132.902 18.8713 133.04 18.074C133.196 17.2767 133.404 16.306 133.664 15.162C133.924 14.0007 134.115 13.0647 134.236 12.354C133.595 12.406 133.118 12.458 132.806 12.51C132.772 12.302 132.754 12.0247 132.754 11.678C132.754 11.314 132.78 11.0193 132.832 10.794H134.47C134.609 9.858 134.678 8.974 134.678 8.142L134.652 7.336V7.258C136.004 6.79 137.278 6.556 138.474 6.556C138.544 6.90267 138.578 7.336 138.578 7.856C138.578 8.376 138.431 9.35533 138.136 10.794H140.658Z" fill="black"/>
</svg>
