<svg width="32" height="32" viewBox="0 0 32 32" fill="none" xmlns="http://www.w3.org/2000/svg">
<path d="M16 0C7.1625 0 0 7.1625 0 16C0 24.8375 7.1625 32 16 32C24.8375 32 32 24.8375 32 16C32 7.1625 24.8375 0 16 0ZM25.3312 17.3312C25.3312 18.0687 24.7375 18.6625 24 18.6625H18.6688V24C18.6688 24.7375 18.075 25.3312 17.3375 25.3312H14.6687C13.9312 25.3312 13.3375 24.7313 13.3375 24V18.6688H8C7.2625 18.6688 6.66875 18.0688 6.66875 17.3375V14.6687C6.66875 13.9312 7.2625 13.3375 8 13.3375H13.3313V8C13.3313 7.2625 13.925 6.66875 14.6625 6.66875H17.3312C18.0687 6.66875 18.6625 7.26875 18.6625 8V13.3313H24C24.7375 13.3313 25.3312 13.9313 25.3312 14.6625V17.3312Z" fill="#678C30"/>
</svg>
