<svg width="38" height="38" viewBox="0 0 38 38" fill="none" xmlns="http://www.w3.org/2000/svg">
<path d="M6.3335 31.6667V6.33337H31.6668V31.6667H6.3335ZM7.91683 30.0834H30.0835V7.91671H7.91683V30.0834Z" fill="#CF8048"/>
<path d="M16.9425 22.8075L12.825 18.6925C12.7674 18.6328 12.6984 18.5852 12.6222 18.5525C12.5459 18.5197 12.4639 18.5025 12.3809 18.5018C12.2979 18.501 12.2156 18.5168 12.1388 18.5483C12.062 18.5797 11.9922 18.6261 11.9335 18.6848C11.8749 18.7435 11.8285 18.8133 11.797 18.8901C11.7656 18.9669 11.7498 19.0492 11.7505 19.1322C11.7512 19.2151 11.7685 19.2972 11.8012 19.3734C11.834 19.4497 11.8816 19.5186 11.9413 19.5763L16.9413 24.5763L26.9413 14.5763C27.0551 14.4584 27.1181 14.3005 27.1167 14.1367C27.1153 13.9728 27.0496 13.816 26.9337 13.7001C26.8178 13.5843 26.661 13.5185 26.4972 13.5171C26.3333 13.5157 26.1754 13.5787 26.0575 13.6925L16.9413 22.8075H16.9425Z" fill="#CF8048"/>
</svg>
