<svg width="32" height="32" viewBox="0 0 32 32" fill="none" xmlns="http://www.w3.org/2000/svg">
<path d="M16 0C7.16344 0 0 7.16344 0 16C0 24.8366 7.16344 32 16 32C24.8366 32 32 24.8366 32 16C32 7.16344 24.8366 0 16 0ZM12.1836 5.89061H22.7031V10.4785L23.3613 9.82227L26.625 13.084L18.918 20.793L14.0859 22.3633L15.6543 17.5293L20.9355 12.2481V7.64843H13.4727V10.8145H10.1445V24.3516H20.9355V21.4336L22.7031 19.6641V26.1094H8.37499V9.56835L12.1836 5.89061ZM16.4707 18.3438L15.6855 20.7617L18.1016 19.9766L16.4707 18.3438Z" fill="#678C30"/>
</svg>
