<svg width="8" height="6" viewBox="0 0 8 6" fill="none" xmlns="http://www.w3.org/2000/svg">
<path d="M5.5625 0C4.91719 0 4.35219 0.2775 4 0.746562C3.64781 0.2775 3.08281 0 2.4375 0C1.92382 0.00057898 1.43135 0.204894 1.06812 0.56812C0.704894 0.931346 0.500579 1.42382 0.5 1.9375C0.5 4.125 3.74344 5.89563 3.88156 5.96875C3.91797 5.98833 3.95866 5.99859 4 5.99859C4.04134 5.99859 4.08203 5.98833 4.11844 5.96875C4.25656 5.89563 7.5 4.125 7.5 1.9375C7.49942 1.42382 7.29511 0.931346 6.93188 0.56812C6.56865 0.204894 6.07618 0.00057898 5.5625 0ZM4 5.4625C3.42937 5.13 1 3.61531 1 1.9375C1.0005 1.5564 1.15211 1.19106 1.42158 0.921582C1.69106 0.652106 2.0564 0.500496 2.4375 0.5C3.04531 0.5 3.55562 0.82375 3.76875 1.34375C3.78759 1.3896 3.81963 1.42882 3.8608 1.45642C3.90198 1.48402 3.95043 1.49876 4 1.49876C4.04957 1.49876 4.09802 1.48402 4.1392 1.45642C4.18037 1.42882 4.21241 1.3896 4.23125 1.34375C4.44437 0.822812 4.95469 0.5 5.5625 0.5C5.9436 0.500496 6.30894 0.652106 6.57842 0.921582C6.84789 1.19106 6.9995 1.5564 7 1.9375C7 3.61281 4.57 5.12969 4 5.4625Z" fill="#FF0000"/>
</svg>
