<svg width="30" height="30" viewBox="0 0 30 30" fill="none" xmlns="http://www.w3.org/2000/svg">
<path d="M21.2584 18.3333H19.9417L19.475 17.8833C21.1084 15.9833 22.0917 13.5166 22.0917 10.8333C22.0917 4.84994 17.2417 -6.10352e-05 11.2584 -6.10352e-05C5.27505 -6.10352e-05 0.425049 4.84994 0.425049 10.8333C0.425049 16.8166 5.27505 21.6666 11.2584 21.6666C13.9417 21.6666 16.4084 20.6833 18.3084 19.0499L18.7584 19.5166V20.8333L27.0917 29.1499L29.575 26.6666L21.2584 18.3333ZM11.2584 18.3333C7.10838 18.3333 3.75838 14.9833 3.75838 10.8333C3.75838 6.68327 7.10838 3.33327 11.2584 3.33327C15.4084 3.33327 18.7584 6.68327 18.7584 10.8333C18.7584 14.9833 15.4084 18.3333 11.2584 18.3333Z" fill="#C8C8C8"/>
</svg>
